<svg xmlns="http://www.w3.org/2000/svg" viewBox="0 0 640 480" role="img"><rect width="640" height="480" fill="#EDE4D3"/><rect x="60" y="40" width="300" height="300" rx="8" fill="#FBF8F2"/><path d="M210 40 L210 340 M60 190 L360 190" stroke="#E2D9C6" stroke-width="10"/><circle cx="300" cy="100" r="34" fill="#F4D9A8" opacity=".8"/><rect x="0" y="360" width="640" height="120" fill="#D9CFBB"/><path d="M0 360 L640 360" stroke="#6B675E" stroke-width="4"/><rect x="20" y="300" width="6" height="70" fill="#6B675E"/><rect x="64" y="300" width="6" height="70" fill="#6B675E"/><rect x="108" y="300" width="6" height="70" fill="#6B675E"/><rect x="152" y="300" width="6" height="70" fill="#6B675E"/><rect x="196" y="300" width="6" height="70" fill="#6B675E"/><rect x="240" y="300" width="6" height="70" fill="#6B675E"/><rect x="284" y="300" width="6" height="70" fill="#6B675E"/><rect x="328" y="300" width="6" height="70" fill="#6B675E"/><rect x="372" y="300" width="6" height="70" fill="#6B675E"/><rect x="416" y="300" width="6" height="70" fill="#6B675E"/><rect x="460" y="300" width="6" height="70" fill="#6B675E"/><rect x="504" y="300" width="6" height="70" fill="#6B675E"/><rect x="548" y="300" width="6" height="70" fill="#6B675E"/><rect x="592" y="300" width="6" height="70" fill="#6B675E"/><rect x="636" y="300" width="6" height="70" fill="#6B675E"/><path d="M0 300 L640 300" stroke="#6B675E" stroke-width="6"/>
<g transform="translate(360 150) scale(1)"><ellipse cx="150" cy="282" rx="80" ry="8" fill="#D9CFBB"/><path d="M150 190 C 90 170, 70 110, 110 80 C 140 90, 160 140, 150 190 Z" fill="#3F5E4A"/><path d="M150 190 C 210 160, 240 100, 205 70 C 170 85, 150 140, 150 190 Z" fill="#5E7F65"/><path d="M150 190 C 140 130, 150 70, 160 40 C 185 80, 175 140, 150 190 Z" fill="#8DB08F"/><path d="M118 110 L 140 130 M 200 100 L 170 135" stroke="#EDE4D3" stroke-width="5"/><path d="M100 200 L200 200 L188 280 L112 280 Z" fill="#C0643A"/><rect x="94" y="196" width="112" height="16" rx="4" fill="#A9552F"/></g>
<g transform="translate(470 230) scale(.6)"><ellipse cx="150" cy="282" rx="80" ry="8" fill="#D9CFBB"/><ellipse cx="120" cy="150" rx="22" ry="15" transform="rotate(-30 120 150)" fill="#5E7F65"/><ellipse cx="180" cy="145" rx="22" ry="15" transform="rotate(25 180 145)" fill="#8DB08F"/><ellipse cx="150" cy="110" rx="22" ry="15" transform="rotate(-5 150 110)" fill="#3F5E4A"/><ellipse cx="105" cy="195" rx="22" ry="15" transform="rotate(-50 105 195)" fill="#8DB08F"/><ellipse cx="200" cy="190" rx="22" ry="15" transform="rotate(40 200 190)" fill="#5E7F65"/><ellipse cx="150" cy="160" rx="22" ry="15" transform="rotate(10 150 160)" fill="#A9C6A2"/><path d="M95 200 C 80 230, 85 250, 70 270" stroke="#5E7F65" stroke-width="4" fill="none"/><ellipse cx="72" cy="262" rx="14" ry="9" fill="#8DB08F"/><path d="M100 200 L200 200 L188 280 L112 280 Z" fill="#C0643A"/><rect x="94" y="196" width="112" height="16" rx="4" fill="#A9552F"/></g>
<g transform="translate(250 280) scale(.5)"><ellipse cx="150" cy="282" rx="80" ry="8" fill="#D9CFBB"/><ellipse cx="150" cy="170" rx="14" ry="40" transform="rotate(-60 150 190)" fill="#8DB08F"/><ellipse cx="150" cy="170" rx="14" ry="40" transform="rotate(60 150 190)" fill="#8DB08F"/><ellipse cx="150" cy="170" rx="14" ry="40" transform="rotate(-30 150 190)" fill="#A9C6A2"/><ellipse cx="150" cy="170" rx="14" ry="40" transform="rotate(30 150 190)" fill="#A9C6A2"/><ellipse cx="150" cy="170" rx="14" ry="40" transform="rotate(0 150 190)" fill="#5E7F65"/><path d="M100 200 L200 200 L188 280 L112 280 Z" fill="#C0643A"/><rect x="94" y="196" width="112" height="16" rx="4" fill="#A9552F"/></g></svg>